<svg id="Layer_1" data-name="Layer 1" xmlns="http://www.w3.org/2000/svg" viewBox="0 0 84 84">
  <defs>
    <style>
      .cls-1 {
        fill: #fff;
      }
    </style>
  </defs>
  <path class="cls-1" d="M28,8A20,20,0,0,0,8,28V72A20,20,0,0,0,28,92H72A20,20,0,0,0,92,72V28A20,20,0,0,0,72,8ZM26,32H74a3.4,3.4,0,0,1,1,.14L55.36,51.78a7.6,7.6,0,0,1-10.74,0L25,32.14A3.4,3.4,0,0,1,26,32Zm-3.86,3,15,15-15,15A3.4,3.4,0,0,1,22,64V36A3.4,3.4,0,0,1,22.14,35Zm55.72,0A3.4,3.4,0,0,1,78,36V64a3.4,3.4,0,0,1-.14,1L62.8,50ZM40,52.82l1.78,1.8a11.64,11.64,0,0,0,16.4,0l1.8-1.8,15,15A3.4,3.4,0,0,1,74,68H26a3.4,3.4,0,0,1-1-.14Z" transform="translate(-8 -8)"/>
</svg>
