<svg id="Layer_1" data-name="Layer 1" xmlns="http://www.w3.org/2000/svg" viewBox="0 0 384 384">
  <defs>
    <style>
      .cls-1 {
        fill: #fff;
      }
    </style>
  </defs>
  <path class="cls-1" d="M160,48A112.13,112.13,0,0,0,48,160V320A112.13,112.13,0,0,0,160,432H320A112.13,112.13,0,0,0,432,320V160A112.13,112.13,0,0,0,320,48Zm192,64a16,16,0,1,1-16,16A16,16,0,0,1,352,112ZM240,144a96,96,0,1,1-96,96A96.1,96.1,0,0,1,240,144Zm0,32a64,64,0,1,0,64,64A64,64,0,0,0,240,176Z" transform="translate(-48 -48)"/>
</svg>
