<svg id="Layer_1" data-name="Layer 1" xmlns="http://www.w3.org/2000/svg" viewBox="00 0 84 84">
  <path d="M28,8A20,20,0,0,0,8,28V72A20,20,0,0,0,28,92H72A20,20,0,0,0,92,72V28A20,20,0,0,0,72,8Zm8,16.09a3.93,3.93,0,0,1,3.11,1.84l3.62,5.66A7.52,7.52,0,0,1,43,39.18l-2.93,4.17a4,4,0,0,0-.42,3.84A24.47,24.47,0,0,0,52.81,60.35a4,4,0,0,0,3.84-.42L60.82,57a7.52,7.52,0,0,1,7.61.26l5.66,3.62A3.93,3.93,0,0,1,75.93,64c.31,7.13-5.21,10-6.82,10C68,74,54.63,75.52,39.55,60.45S26,32,26,30.89C26,29.28,28.88,23.76,36,24.07Z" transform="translate(-8 -7.98)" style="fill: #fff"/>
</svg>
