<svg id="Layer_1" data-name="Layer 1" xmlns="http://www.w3.org/2000/svg" viewBox="0 0 384 384">
  <defs>
    <style>
      .cls-1 {
        fill: #fff;
      }
    </style>
  </defs>
  <path class="cls-1" d="M240,48C134,48,48,134,48,240a190.81,190.81,0,0,0,27.38,98.41L49.72,432l95.59-25.09A191,191,0,0,0,240,432c106,0,192-86,192-192S346,48,240,48ZM174.28,150.44c3.12,0,6.33,0,9.1.12,3.42.08,7.15.33,10.71,8.22,4.24,9.38,13.48,32.9,14.66,35.28s2,5.19.37,8.32a34.8,34.8,0,0,1-4.68,8c-2.39,2.76-5,6.17-7.16,8.25-2.38,2.39-4.84,5-2.09,9.75s12.31,20.33,26.43,32.91c18.16,16.22,33.49,21.21,38.26,23.59s7.52,2,10.28-1.18,11.89-13.83,15.09-18.6,6.31-3.94,10.63-2.37,27.76,13.08,32.53,15.47,7.89,3.56,9.09,5.5,1.23,11.52-2.72,22.62-23.36,21.81-32.06,22.56-17,4-57.1-11.84c-48.38-19.06-78.89-68.61-81.28-71.81S145,219.42,145,196.06s12.29-34.92,16.59-39.68A17.49,17.49,0,0,1,174.28,150.44Z" transform="translate(-48 -48)"/>
</svg>
